<svg xmlns="http://www.w3.org/2000/svg" xmlns:xlink="http://www.w3.org/1999/xlink" xmlns:lucid="lucid" width="920" height="1088"><g transform="translate(-180 -80)" lucid:page-tab-id="0_0"><path d="M0 0h1870.87v1322.84H0z" fill="#fff"/><path d="M200 106a6 6 0 0 1 6-6h868a6 6 0 0 1 6 6v708a6 6 0 0 1-6 6H206a6 6 0 0 1-6-6z" fill="#fff" fill-opacity="0"/><path d="M203.7 100.47l.45-.18.9-.23.95-.07h2m3.97 0h3.98m4 0h3.97m3.98 0h3.98m3.98 0h3.98m4 0h3.97m4 0h3.97m3.98 0h3.98m4 0h3.97m3.98 0h3.98m3.98 0h3.98m4 0h3.97m3.97 0h3.98m3.98 0h3.98m4 0h3.98m3.98 0h3.98m3.98 0h3.98m4 0h3.97m3.98 0h3.98m3.98 0h4m3.97 0h4m3.97 0h3.98m3.98 0h3.98m4 0h3.97m3.98 0h3.98m4 0h3.97m4 0h3.97m3.98 0H423m3.98 0h3.98m4 0h3.97m3.98 0h4m3.97 0h3.98m3.98 0h4m3.97 0h3.98m3.98 0h3.98m4 0h3.97m4 0h3.97m3.98 0h3.98m4 0h3.97m3.98 0h3.98m3.98 0h3.98m4 0h3.97m3.97 0h3.98m3.98 0h3.98m4 0h3.98m3.98 0h3.98m3.98 0h3.98m3.98 0h4m3.97 0h3.98m3.98 0h4m3.97 0h4m3.97 0h3.98m3.98 0h3.98m3.98 0h4m3.97 0H638m4 0h3.97m3.98 0h4m3.97 0h3.98m3.98 0h3.98m3.98 0h4m3.97 0h4m3.97 0h3.98m3.98 0h4m3.97 0h3.98m3.98 0h3.98m3.98 0h4m3.97 0h3.97m3.98 0h3.98m3.98 0h4m3.98 0h3.98m3.98 0h3.98m3.98 0h4m3.97 0h3.98m3.98 0h3.98m4 0h3.98m3.98 0h3.98m3.98 0h3.98m3.98 0h4m3.97 0h3.98m3.98 0h4m3.97 0h3.98m4 0H853m3.98 0h3.98m3.98 0h4m3.97 0h3.98m4 0h3.97m3.98 0h4m3.97 0h3.98m3.98 0h3.98m3.98 0h4m3.97 0h4m3.97 0h3.98m3.98 0h4m3.97 0h3.98m3.98 0h3.98m3.98 0h4m3.97 0h3.97m3.98 0h3.98m3.98 0h4m3.98 0h3.98m3.98 0h3.98m3.98 0h3.98m4 0h3.97m3.98 0h3.98m4 0h3.97m4 0h3.97m3.98 0h3.98m3.98 0h3.98m4 0h3.97m3.98 0h2l.94.07.9.22.45.17m3.23 3.24l.18.45.23.9.07.95v2m0 3.97v3.97m0 3.98v3.98m0 3.98v3.97m0 3.98v3.98m0 4v3.96m0 3.98v3.98m0 3.98v3.97m0 3.98v3.98m0 3.98v3.98m0 3.98v3.98m0 3.98v3.97m0 3.97v3.98m0 3.98v3.97m0 3.98v3.98m0 3.98v3.97m0 4v3.97m0 3.98v3.97m0 3.98v3.98m0 3.98v3.97m0 3.98v4m0 3.97v3.98m0 3.97V283m0 3.98v3.97m0 3.98v3.98m0 4v3.97m0 3.97v3.98m0 3.98v3.97m0 3.98v3.98m0 3.98v4m0 3.96v3.98m0 3.98v3.98m0 3.97v3.98m0 3.98v3.98m0 3.98v3.98m0 3.98v3.98m0 3.97v3.97m0 3.98v3.98m0 3.97v3.98m0 3.98v3.98m0 3.97v4m0 3.97v3.98m0 3.97v3.98m0 3.98v3.98m0 3.97V458m0 4v3.97m0 3.97v3.98m0 3.98v3.98m0 3.97v3.98m0 3.98v4m0 3.96v3.98m0 3.98v3.98m0 3.97v3.98m0 3.98v3.98m0 3.98v3.98m0 3.98v3.98m0 3.97v3.97m0 3.98v3.98m0 3.97v3.98m0 3.98v3.98m0 3.98v3.97m0 3.97v3.98m0 3.98v3.97m0 3.98v3.98m0 3.98v3.97m0 4v3.97m0 3.97v3.98m0 3.98v3.98m0 3.98v3.97m0 3.98v4m0 3.97v3.97m0 3.98v3.98m0 3.98v3.97m0 3.98v3.98m0 3.98v3.98m0 3.98v3.98m0 3.98v3.97m0 3.98v3.98m0 3.98v3.98m0 3.98v3.98m0 3.98v3.97m0 3.97v3.98m0 3.98v3.97m0 3.98v3.98m0 3.98v3.97m0 4v3.97m0 3.98v3.97m0 3.98v3.98m0 3.98v3.97m0 3.98v2l-.07.94-.22.9-.17.45m-3.24 3.23l-.45.18-.9.23-.95.07h-2m-3.97 0h-3.98m-4 0h-3.97m-3.98 0h-3.98m-3.98 0h-3.98m-4 0h-3.97m-4 0h-3.97m-3.98 0h-3.98m-4 0h-3.97m-3.98 0h-3.98m-3.98 0h-3.98m-4 0h-3.97m-3.97 0h-3.98m-3.98 0h-3.98m-4 0h-3.98m-3.98 0h-3.98m-3.98 0h-3.98m-4 0h-3.97m-3.98 0h-3.98m-3.98 0h-4m-3.98 0h-3.98m-3.98 0h-3.98m-3.98 0h-3.98m-4 0h-3.97m-3.98 0h-3.98m-4 0h-3.97m-3.98 0h-4m-3.97 0H857m-3.98 0h-3.98m-4 0h-3.97m-3.98 0h-4m-3.97 0h-3.98m-4 0h-3.97m-3.98 0h-3.98m-3.98 0h-3.98m-4 0h-3.97m-4 0h-3.97m-3.98 0h-3.98m-4 0h-3.97m-3.98 0h-3.98m-3.98 0h-3.98m-4 0h-3.97m-3.97 0h-3.98m-3.98 0h-3.98m-4 0h-3.98m-3.98 0h-3.98m-3.98 0h-3.98m-3.98 0h-4m-3.97 0h-3.98m-3.98 0h-4m-3.97 0h-4m-3.97 0h-3.98m-3.98 0h-3.98m-3.98 0h-4m-3.97 0H642m-4 0h-3.97m-3.98 0h-4m-3.97 0h-3.98m-3.98 0h-3.98m-3.98 0h-4m-3.97 0h-4m-3.97 0h-3.98m-3.98 0h-4m-3.97 0h-3.98m-3.98 0h-3.98m-3.98 0h-4m-3.97 0h-3.97m-3.98 0h-3.98m-3.98 0h-4m-3.98 0h-3.98m-3.98 0h-3.98m-3.98 0h-4m-3.97 0h-3.98m-3.98 0h-3.98m-4 0h-3.97m-4 0h-3.97m-3.98 0h-3.98m-3.98 0h-4m-3.97 0h-3.98m-3.98 0h-4m-3.97 0h-4m-3.97 0h-3.98m-3.98 0h-3.98m-3.98 0h-4m-3.97 0h-3.98m-4 0h-3.97m-3.98 0h-3.98m-4 0h-3.97m-3.98 0h-3.98m-3.98 0h-4m-3.97 0h-4m-3.97 0h-3.98m-3.98 0h-4m-3.97 0h-3.98m-3.98 0h-3.98m-3.98 0h-4m-3.97 0h-3.97m-3.98 0h-3.98m-3.98 0h-4m-3.98 0h-3.98m-3.98 0h-3.98m-3.98 0h-3.98m-4 0h-3.97m-3.98 0h-3.98m-4 0h-3.97m-4 0h-3.97m-3.98 0h-3.98m-3.98 0h-3.98m-4 0h-3.97m-3.98 0h-2l-.94-.07-.9-.22-.45-.17m-3.23-3.24l-.18-.45-.23-.9-.07-.95v-2m0-3.97v-3.97m0-3.98v-3.98m0-3.98v-3.97m0-3.98v-3.98m0-4v-3.96m0-3.98v-3.98m0-3.98v-3.97m0-3.98v-3.98m0-3.98v-3.98m0-3.98v-3.98m0-3.98v-3.97m0-3.97v-3.98m0-3.98v-3.97m0-3.98v-3.98m0-3.98v-3.98m0-3.97v-3.97m0-3.98v-3.98m0-3.97v-3.98m0-3.98v-3.98m0-3.97v-4m0-3.97v-3.97m0-3.98V637m0-3.98v-3.98m0-3.97v-3.98m0-4v-3.97m0-3.97v-3.98m0-3.98v-3.98m0-3.97v-3.98m0-3.98v-3.98m0-3.98v-3.98m0-3.98v-3.98m0-3.97v-3.98m0-3.98v-3.98m0-3.98v-3.98m0-3.98v-3.98m0-3.97v-3.97m0-3.98v-3.98m0-3.97v-3.98m0-3.98v-3.98m0-3.97v-4m0-3.97v-3.98m0-3.97v-3.98m0-3.98v-3.98m0-3.97V462m0-4v-3.97m0-3.97v-3.98m0-3.98v-3.98m0-3.97v-3.98m0-3.98v-4m0-3.96v-3.98m0-3.98v-3.98m0-3.97v-3.98m0-3.98v-3.98m0-3.98v-3.98m0-3.98v-3.98m0-3.97v-3.97m0-3.98v-3.98m0-3.97v-3.98m0-3.98v-3.98m0-3.98v-3.97m0-3.97v-3.98m0-3.98v-3.97m0-3.98v-3.98m0-3.97v-3.98m0-4v-3.97m0-3.98v-3.97m0-3.98v-3.98m0-3.97v-3.98m0-3.98v-4m0-3.97v-3.97m0-3.98v-3.98m0-3.97v-3.98m0-3.98v-3.98m0-4v-3.96m0-3.98v-3.98m0-3.98v-3.97m0-3.98v-3.98m0-3.98v-3.98m0-3.98v-3.98m0-3.98v-3.97m0-3.97v-3.98m0-3.98v-3.97m0-3.98v-3.98m0-3.98v-3.97m0-4v-3.97m0-3.98v-3.97m0-3.98v-3.98m0-3.98v-3.97m0-3.98v-2l.07-.94.22-.9.17-.45" stroke="#5a6c86" fill="none"/><use xlink:href="#a" transform="matrix(1,0,0,1,200,120) translate(369.075 14.4)"/><use xlink:href="#b" transform="matrix(1,0,0,1,200,120) translate(428.025 14.4)"/><path d="M378.32 291.3h-76.64c-.88 0-1.68-.77-1.68-1.7v-47.9c0-.93.8-1.7 1.68-1.7h76.64c.88 0 1.68.77 1.68 1.7v47.9c0 .93-.8 1.7-1.68 1.7zm-74.88-3.4h73.12v-44.5h-73.12z" stroke="#fff" stroke-opacity="0" fill="#d86613"/><path d="M309.58 248.1h3.4v35.13h-3.4V248.1zM319.15 248.1h3.4v35.13h-3.4V248.1zM328.73 248.1h3.4v35.13h-3.4V248.1zM338.3 248.1h3.4v35.13h-3.4V248.1zM347.88 248.1h3.4v35.13h-3.4V248.1zM357.45 248.1h3.4v35.13h-3.4V248.1zM367.03 248.1h3.4v35.13h-3.4V248.1z" stroke="#fff" stroke-opacity="0" fill="#d86613"/><use xlink:href="#c" transform="matrix(1,0,0,1,270,300.29999999999995) translate(-3.9506172839506206 17.77777777777778)"/><use xlink:href="#d" transform="matrix(1,0,0,1,270,300.29999999999995) translate(42.870370370370374 44.44444444444444)"/><path d="M578.32 291.3h-76.64c-.88 0-1.68-.77-1.68-1.7v-47.9c0-.93.8-1.7 1.68-1.7h76.64c.88 0 1.68.77 1.68 1.7v47.9c0 .93-.8 1.7-1.68 1.7zm-74.88-3.4h73.12v-44.5h-73.12z" stroke="#fff" stroke-opacity="0" fill="#d86613"/><path d="M509.58 248.1h3.4v35.13h-3.4V248.1zM519.15 248.1h3.4v35.13h-3.4V248.1zM528.73 248.1h3.4v35.13h-3.4V248.1zM538.3 248.1h3.4v35.13h-3.4V248.1zM547.88 248.1h3.4v35.13h-3.4V248.1zM557.45 248.1h3.4v35.13h-3.4V248.1zM567.03 248.1h3.4v35.13h-3.4V248.1z" stroke="#fff" stroke-opacity="0" fill="#d86613"/><use xlink:href="#e" transform="matrix(1,0,0,1,470,300.29999999999995) translate(-3.9506172839506206 17.77777777777778)"/><use xlink:href="#f" transform="matrix(1,0,0,1,470,300.29999999999995) translate(32.40740740740741 44.44444444444444)"/><path d="M778.32 291.3h-76.64c-.88 0-1.68-.77-1.68-1.7v-47.9c0-.93.8-1.7 1.68-1.7h76.64c.88 0 1.68.77 1.68 1.7v47.9c0 .93-.8 1.7-1.68 1.7zm-74.88-3.4h73.12v-44.5h-73.12z" stroke="#fff" stroke-opacity="0" fill="#d86613"/><path d="M709.58 248.1h3.4v35.13h-3.4V248.1zM719.15 248.1h3.4v35.13h-3.4V248.1zM728.73 248.1h3.4v35.13h-3.4V248.1zM738.3 248.1h3.4v35.13h-3.4V248.1zM747.88 248.1h3.4v35.13h-3.4V248.1zM757.45 248.1h3.4v35.13h-3.4V248.1zM767.03 248.1h3.4v35.13h-3.4V248.1z" stroke="#fff" stroke-opacity="0" fill="#d86613"/><use xlink:href="#g" transform="matrix(1,0,0,1,670,300.29999999999995) translate(-3.9506172839506206 17.77777777777778)"/><use xlink:href="#h" transform="matrix(1,0,0,1,670,300.29999999999995) translate(49.04320987654321 44.44444444444444)"/><path d="M978.32 291.3h-76.64c-.88 0-1.68-.77-1.68-1.7v-47.9c0-.93.8-1.7 1.68-1.7h76.64c.88 0 1.68.77 1.68 1.7v47.9c0 .93-.8 1.7-1.68 1.7zm-74.88-3.4h73.12v-44.5h-73.12z" stroke="#fff" stroke-opacity="0" fill="#d86613"/><path d="M909.58 248.1h3.4v35.13h-3.4V248.1zM919.15 248.1h3.4v35.13h-3.4V248.1zM928.73 248.1h3.4v35.13h-3.4V248.1zM938.3 248.1h3.4v35.13h-3.4V248.1zM947.88 248.1h3.4v35.13h-3.4V248.1zM957.45 248.1h3.4v35.13h-3.4V248.1zM967.03 248.1h3.4v35.13h-3.4V248.1z" stroke="#fff" stroke-opacity="0" fill="#d86613"/><use xlink:href="#i" transform="matrix(1,0,0,1,870,300.3) translate(-3.9506172839506206 17.77777777777778)"/><use xlink:href="#j" transform="matrix(1,0,0,1,870,300.3) translate(44.75308641975309 44.44444444444444)"/><path d="M541.24 473.5l14.9 8.9 11.27 7.4 9.15 6.54 7.7 6.03 6.63 5.67 5.83 5.4 5.2 5.24 4.65 5.12 4.22 5.03 3.83 5 3.5 5 3.23 5 2.96 5.06 2.7 5.13 2.5 5.25 2.3 5.38 2.1 5.56 1.9 5.75 1.72 6 1.5 6.28 1.3 6.62.78 5.02-5.94.9-.74-4.9-1.25-6.37-1.45-6.04-1.64-5.76-1.83-5.52-2-5.32-2.2-5.15-2.4-5.02-2.6-4.92-2.84-4.83-3.07-4.8-3.36-4.8-3.7-4.78-4.04-4.86-4.5-4.92-5-5.06-5.64-5.24-6.46-5.5-7.5-5.88-8.93-6.4-11.04-7.25-14.62-8.74-55.58-28.18h1.82v-5.8zM352.5 366.74l11.73 9.18 13.34 9.57 15.65 10.26 19.47 11.62 28.13 15.22 13.12 6.65h-1.82v5.8l-14.08-7.14-28.33-15.3-19.68-11.76-15.87-10.4-13.54-9.72-11.92-9.34-8.36-7.15 3.9-4.56z" stroke="#3a414a" stroke-width=".05" fill="#3a414a"/><path d="M344.3 359.72l-3.9 4.56-2.34-2 3.9-4.56z" stroke="#3a414a" stroke-width=".05" fill="#3a414a"/><path d="M639.33 617.55l-5.62-13.9 9.26-.66z" fill="#3a414a"/><path d="M640 627.23l-10.62-26.3 17.5-1.22zm-1.96-20.9l.6 1.53.4-1.6z" stroke="#3a414a" stroke-width=".05" fill="#3a414a"/><use xlink:href="#k" transform="matrix(1,0,0,1,452.13432602779505,429.2489038958267) translate(0 14.222222222222223)"/><path d="M703.9 712.77H576.1c-1.46 0-2.8-1.28-2.8-2.82v-79.9c0-1.54 1.34-2.82 2.8-2.82h127.8c1.46 0 2.8 1.28 2.8 2.82v79.9c0 1.54-1.34 2.82-2.8 2.82zm-124.86-5.65h121.92v-74.24H579.04z" stroke="#fff" stroke-opacity="0" fill="#d86613"/><path d="M589.28 640.72h5.68v58.6h-5.68v-58.6zM605.23 640.72h5.68v58.6h-5.67v-58.6zM621.2 640.72h5.7v58.6h-5.7v-58.6zM637.16 640.72h5.68v58.6h-5.68v-58.6zM653.14 640.72h5.68v58.6h-5.68v-58.6zM669.1 640.72h5.67v58.6h-5.68v-58.6zM685.07 640.72h5.68v58.6h-5.68v-58.6z" stroke="#fff" stroke-opacity="0" fill="#d86613"/><use xlink:href="#l" transform="matrix(1,0,0,1,543.3040935672514,721.7687499999998) translate(45.24074074074074 17.77777777777778)"/><use xlink:href="#m" transform="matrix(1,0,0,1,543.3040935672514,721.7687499999998) translate(29.129629629629633 44.44444444444444)"/><use xlink:href="#n" transform="matrix(1,0,0,1,543.3040935672514,721.7687499999998) translate(64.9320987654321 44.44444444444444)"/><use xlink:href="#o" transform="matrix(1,0,0,1,543.3040935672514,721.7687499999998) translate(115.48765432098766 44.44444444444444)"/><use xlink:href="#p" transform="matrix(1,0,0,1,543.3040935672514,721.7687499999998) translate(0.20987654320987303 71.11111111111111)"/><use xlink:href="#n" transform="matrix(1,0,0,1,543.3040935672514,721.7687499999998) translate(93.85185185185185 71.11111111111111)"/><use xlink:href="#q" transform="matrix(1,0,0,1,543.3040935672514,721.7687499999998) translate(144.40740740740742 71.11111111111111)"/><path d="M614.32 503.04l6.53 14.53 4.92 12.35 3.97 11.3 3.28 10.8 2.74 10.6 2.28 10.6 1.86 10.86 1.45 11.26.4 4.7-5.98.5-.4-4.56-1.4-11-1.82-10.6-2.23-10.4-2.67-10.34-3.22-10.54-3.88-11.07-4.83-12.12-6.4-14.22-36.47-68.6h6.8zM550.5 378.22l9.27 20.7 8.42 16.82h-6.72l-7.13-14.25-9.38-20.94-6.64-16.66 5.57-2.22z" stroke="#3a414a" stroke-width=".05" fill="#3a414a"/><path d="M543.93 361.75l-5.58 2.22-1.14-2.86 5.6-2.2z" stroke="#3a414a" stroke-width=".05" fill="#3a414a"/><path d="M639.55 617.53l-5.28-14.03 9.26-.43z" fill="#3a414a"/><path d="M640 627.23l-10-26.54 17.5-.82zm-1.47-20.93l.58 1.54.44-1.58z" stroke="#3a414a" stroke-width=".05" fill="#3a414a"/><use xlink:href="#k" transform="matrix(1,0,0,1,553.9527512218575,415.7360437920059) translate(0 14.222222222222223)"/><path d="M671.07 505.68l-6.4 14.23-4.82 12.13-3.88 11.07-3.22 10.54L650.1 564l-2.23 10.37-1.82 10.6-1.4 11-.4 4.58-5.98-.5.4-4.7 1.45-11.27 1.86-10.85 2.28-10.62 2.74-10.58 3.28-10.8 3.97-11.3 4.92-12.35 6.53-14.53 35.15-66.12h6.8zm70.6-141.78l-6.63 16.66-9.38 20.93-7.07 14.1h-6.72l8.35-16.68 9.28-20.7 6.6-16.54z" stroke="#3a414a" stroke-width=".05" fill="#3a414a"/><path d="M742.8 361.1l-1.15 2.87-5.58-2.22 1.14-2.86z" stroke="#3a414a" stroke-width=".05" fill="#3a414a"/><path d="M645.73 603.5l-5.28 14.03-3.98-14.46z" fill="#3a414a"/><path d="M650 600.7l-10 26.53-7.5-27.35zm-9.1 7.13l.57-1.53-1-.04z" stroke="#3a414a" stroke-width=".05" fill="#3a414a"/><use xlink:href="#k" transform="matrix(1,0,0,1,693.6753059338091,415.5912572194545) translate(0 14.222222222222223)"/><path d="M767.6 464.7h1.8l-27.74 14.06-14.62 8.73-11.05 7.23-8.95 6.4-7.5 5.88-6.44 5.52-5.64 5.24-5 5.06-4.5 4.92-4.04 4.85-3.7 4.78-3.35 4.8-3.08 4.8-2.84 4.83-2.6 4.93-2.4 5.02-2.2 5.15-2 5.32-1.84 5.52-1.64 5.75-1.45 6.03-1.25 6.37-.75 4.9-5.93-.9.77-5.03 1.3-6.62 1.5-6.28 1.72-6 1.9-5.75 2.1-5.56 2.3-5.38 2.5-5.25 2.7-5.14 2.97-5.07 3.22-5 3.5-5 3.83-5 4.22-5.03 4.65-5.12 5.2-5.23 5.82-5.42 6.64-5.66 7.7-6.03 9.13-6.55 11.26-7.4 14.9-8.9 28.83-14.6zm172.06-100.47l-8.37 7.15-11.93 9.34-13.54 9.72-15.87 10.4-19.68 11.76-28.33 15.3-41.9 21.26v-5.8h-1.83l40.94-20.76 28.15-15.22 19.48-11.62 15.65-10.27 13.34-9.58 11.72-9.2 8.27-7.05z" stroke="#3a414a" stroke-width=".05" fill="#3a414a"/><path d="M941.94 362.3l-2.34 1.98-3.9-4.56 2.35-2z" stroke="#3a414a" stroke-width=".05" fill="#3a414a"/><path d="M646.3 603.64l-5.63 13.9-3.63-14.55z" fill="#3a414a"/><path d="M650.6 600.93l-10.6 26.3-6.87-27.52zm-9.25 6.93l.6-1.52-1-.07z" stroke="#3a414a" stroke-width=".05" fill="#3a414a"/><use xlink:href="#k" transform="matrix(1,0,0,1,767.5910578200993,443.3589070654037) translate(0 14.222222222222223)"/><g filter="url(#r)"><path d="M593.22 1022a2 2 0 0 1 2-2h84a2 2 0 0 1 2 2v124a2 2 0 0 1-2 2h-84a2 2 0 0 1-2-2z" fill="#fff"/><path d="M661.2 1082c1.67 0 3.1-.6 4.26-1.76 1.18-1.17 1.76-2.58 1.76-4.24v-30c0-1.66-.58-3.07-1.76-4.24-1.17-1.17-2.6-1.76-4.25-1.76h-47.98c-1.66 0-3.08.6-4.25 1.76-1.17 1.17-1.76 2.58-1.76 4.24v30c0 1.66.6 3.07 1.77 4.24 1.17 1.17 2.6 1.76 4.25 1.76h-12v6h72v-6zm-47.98-36h48v30h-48z" fill="#757575"/><use xlink:href="#s" transform="matrix(1,0,0,1,593.2163742690058,1101) translate(29.82936962890625 28.05751953125)"/></g><path d="M643 993.03h-6v-62.1h6zm0-83.44h-6v-62.12h6z" stroke="#3a414a" stroke-width=".05" fill="#3a414a"/><path d="M644.63 844.48h-9.26L640 830.2z" fill="#3a414a"/><path d="M648.76 847.48h-17.52L640 820.5zm-9.27-6h1l-.5-1.56z" stroke="#3a414a" stroke-width=".05" fill="#3a414a"/><path d="M640 1010.3l-4.63-14.27h9.26z" fill="#3a414a"/><path d="M640 1020l-8.76-26.97h17.52zm-.5-20.97l.5 1.55.5-1.55z" stroke="#3a414a" stroke-width=".05" fill="#3a414a"/><g><use xlink:href="#t" transform="matrix(1,0,0,1,626.7160493827162,909.5848279121761) translate(0 14.222222222222223)"/></g><path d="M470 180h340v30.8H470z" fill="#fff"/><g><use xlink:href="#u" transform="matrix(1,0,0,1,475,185) translate(0 13.866666666666669)"/><use xlink:href="#v" transform="matrix(1,0,0,1,475,185) translate(56.76666666666667 13.866666666666669)"/><use xlink:href="#w" transform="matrix(1,0,0,1,475,185) translate(86.57037037037038 13.866666666666669)"/><use xlink:href="#x" transform="matrix(1,0,0,1,475,185) translate(106.74444444444447 13.866666666666669)"/><use xlink:href="#y" transform="matrix(1,0,0,1,475,185) translate(207.662962962963 13.866666666666669)"/></g><path d="M720 654.6h340v30.8H720z" fill="#fff"/><g><use xlink:href="#u" transform="matrix(1,0,0,1,725,659.5999999999999) translate(0 13.866666666666669)"/><use xlink:href="#v" transform="matrix(1,0,0,1,725,659.5999999999999) translate(56.76666666666667 13.866666666666669)"/><use xlink:href="#w" transform="matrix(1,0,0,1,725,659.5999999999999) translate(86.57037037037038 13.866666666666669)"/><use xlink:href="#z" transform="matrix(1,0,0,1,725,659.5999999999999) translate(106.74444444444447 13.866666666666669)"/></g><path d="M240 500h266.7v20H240z" fill="#fff"/><g><use xlink:href="#A" transform="matrix(1,0,0,1,245,505) translate(0 13.866666666666669)"/><use xlink:href="#B" transform="matrix(1,0,0,1,245,505) translate(73.04074074074074 13.866666666666669)"/><use xlink:href="#C" transform="matrix(1,0,0,1,245,505) translate(126.91851851851854 13.866666666666669)"/></g><defs><path fill="#5a6c86" d="M85-194c31 0 48 13 60 33l-1-100h32l1 261h-30c-2-10 0-23-3-31C134-8 116 4 85 4 32 4 16-35 15-94c0-66 23-100 70-100zm9 24c-40 0-46 34-46 75 0 40 6 74 45 74 42 0 51-32 51-76 0-42-9-74-50-73" id="D"/><path fill="#5a6c86" d="M100-194c62-1 85 37 85 99 1 63-27 99-86 99S16-35 15-95c0-66 28-99 85-99zM99-20c44 1 53-31 53-75 0-43-8-75-51-75s-53 32-53 75 10 74 51 75" id="E"/><path fill="#5a6c86" d="M96-169c-40 0-48 33-48 73s9 75 48 75c24 0 41-14 43-38l32 2c-6 37-31 61-74 61-59 0-76-41-82-99-10-93 101-131 147-64 4 7 5 14 7 22l-32 3c-4-21-16-35-41-35" id="F"/><path fill="#5a6c86" d="M143 0L79-87 56-68V0H24v-261h32v163l83-92h37l-77 82L181 0h-38" id="G"/><path fill="#5a6c86" d="M100-194c63 0 86 42 84 106H49c0 40 14 67 53 68 26 1 43-12 49-29l28 8c-11 28-37 45-77 45C44 4 14-33 15-96c1-61 26-98 85-98zm52 81c6-60-76-77-97-28-3 7-6 17-6 28h103" id="H"/><path fill="#5a6c86" d="M114-163C36-179 61-72 57 0H25l-1-190h30c1 12-1 29 2 39 6-27 23-49 58-41v29" id="I"/><g id="a"><use transform="matrix(0.05,0,0,0.05,0,0)" xlink:href="#D"/><use transform="matrix(0.05,0,0,0.05,10,0)" xlink:href="#E"/><use transform="matrix(0.05,0,0,0.05,20,0)" xlink:href="#F"/><use transform="matrix(0.05,0,0,0.05,29,0)" xlink:href="#G"/><use transform="matrix(0.05,0,0,0.05,38,0)" xlink:href="#H"/><use transform="matrix(0.05,0,0,0.05,48,0)" xlink:href="#I"/></g><path fill="#5a6c86" d="M117-194c89-4 53 116 60 194h-32v-121c0-31-8-49-39-48C34-167 62-67 57 0H25l-1-190h30c1 10-1 24 2 32 11-22 29-35 61-36" id="J"/><path fill="#5a6c86" d="M59-47c-2 24 18 29 38 22v24C64 9 27 4 27-40v-127H5v-23h24l9-43h21v43h35v23H59v120" id="K"/><path fill="#5a6c86" d="M141-36C126-15 110 5 73 4 37 3 15-17 15-53c-1-64 63-63 125-63 3-35-9-54-41-54-24 1-41 7-42 31l-33-3c5-37 33-52 76-52 45 0 72 20 72 64v82c-1 20 7 32 28 27v20c-31 9-61-2-59-35zM48-53c0 20 12 33 32 33 41-3 63-29 60-74-43 2-92-5-92 41" id="L"/><path fill="#5a6c86" d="M24-231v-30h32v30H24zM24 0v-190h32V0H24" id="M"/><path fill="#5a6c86" d="M135-143c-3-34-86-38-87 0 15 53 115 12 119 90S17 21 10-45l28-5c4 36 97 45 98 0-10-56-113-15-118-90-4-57 82-63 122-42 12 7 21 19 24 35" id="N"/><g id="b"><use transform="matrix(0.05,0,0,0.05,0,0)" xlink:href="#F"/><use transform="matrix(0.05,0,0,0.05,9,0)" xlink:href="#E"/><use transform="matrix(0.05,0,0,0.05,19,0)" xlink:href="#J"/><use transform="matrix(0.05,0,0,0.05,29,0)" xlink:href="#K"/><use transform="matrix(0.05,0,0,0.05,34,0)" xlink:href="#L"/><use transform="matrix(0.05,0,0,0.05,44,0)" xlink:href="#M"/><use transform="matrix(0.05,0,0,0.05,47.95,0)" xlink:href="#J"/><use transform="matrix(0.05,0,0,0.05,57.95,0)" xlink:href="#H"/><use transform="matrix(0.05,0,0,0.05,67.95,0)" xlink:href="#I"/><use transform="matrix(0.05,0,0,0.05,73.9,0)" xlink:href="#N"/></g><path fill="#3a414a" d="M85-194c31 0 48 13 60 33l-1-100h32l1 261h-30c-2-10 0-23-3-31C134-8 116 4 85 4 32 4 16-35 15-94c0-66 23-100 70-100zm9 24c-40 0-46 34-46 75 0 40 6 74 45 74 42 0 51-32 51-76 0-42-9-74-50-73" id="O"/><path fill="#3a414a" d="M141-36C126-15 110 5 73 4 37 3 15-17 15-53c-1-64 63-63 125-63 3-35-9-54-41-54-24 1-41 7-42 31l-33-3c5-37 33-52 76-52 45 0 72 20 72 64v82c-1 20 7 32 28 27v20c-31 9-61-2-59-35zM48-53c0 20 12 33 32 33 41-3 63-29 60-74-43 2-92-5-92 41" id="P"/><path fill="#3a414a" d="M24-231v-30h32v30H24zM24 0v-190h32V0H24" id="Q"/><path fill="#3a414a" d="M0 4l72-265h28L28 4H0" id="R"/><path fill="#3a414a" d="M210-169c-67 3-38 105-44 169h-31v-121c0-29-5-50-35-48C34-165 62-65 56 0H25l-1-190h30c1 10-1 24 2 32 10-44 99-50 107 0 11-21 27-35 58-36 85-2 47 119 55 194h-31v-121c0-29-5-49-35-48" id="S"/><path fill="#3a414a" d="M84 4C-5 8 30-112 23-190h32v120c0 31 7 50 39 49 72-2 45-101 50-169h31l1 190h-30c-1-10 1-25-2-33-11 22-28 36-60 37" id="T"/><path fill="#3a414a" d="M135-143c-3-34-86-38-87 0 15 53 115 12 119 90S17 21 10-45l28-5c4 36 97 45 98 0-10-56-113-15-118-90-4-57 82-63 122-42 12 7 21 19 24 35" id="U"/><path fill="#3a414a" d="M96-169c-40 0-48 33-48 73s9 75 48 75c24 0 41-14 43-38l32 2c-6 37-31 61-74 61-59 0-76-41-82-99-10-93 101-131 147-64 4 7 5 14 7 22l-32 3c-4-21-16-35-41-35" id="V"/><path fill="#3a414a" d="M117-194c89-4 53 116 60 194h-32v-121c0-31-8-49-39-48C34-167 62-67 57 0H25l-1-190h30c1 10-1 24 2 32 11-22 29-35 61-36" id="W"/><path fill="#3a414a" d="M-5 72V49h209v23H-5" id="X"/><path fill="#3a414a" d="M27 0v-27h64v-190l-56 39v-29l58-41h29v221h61V0H27" id="Y"/><g id="c"><use transform="matrix(0.06172839506172839,0,0,0.06172839506172839,0,0)" xlink:href="#O"/><use transform="matrix(0.06172839506172839,0,0,0.06172839506172839,12.345679012345679,0)" xlink:href="#P"/><use transform="matrix(0.06172839506172839,0,0,0.06172839506172839,24.691358024691358,0)" xlink:href="#Q"/><use transform="matrix(0.06172839506172839,0,0,0.06172839506172839,29.5679012345679,0)" xlink:href="#R"/><use transform="matrix(0.06172839506172839,0,0,0.06172839506172839,35.74074074074074,0)" xlink:href="#S"/><use transform="matrix(0.06172839506172839,0,0,0.06172839506172839,54.19753086419753,0)" xlink:href="#T"/><use transform="matrix(0.06172839506172839,0,0,0.06172839506172839,66.54320987654322,0)" xlink:href="#U"/><use transform="matrix(0.06172839506172839,0,0,0.06172839506172839,77.65432098765433,0)" xlink:href="#Q"/><use transform="matrix(0.06172839506172839,0,0,0.06172839506172839,82.53086419753087,0)" xlink:href="#V"/><use transform="matrix(0.06172839506172839,0,0,0.06172839506172839,93.64197530864199,0)" xlink:href="#Q"/><use transform="matrix(0.06172839506172839,0,0,0.06172839506172839,98.51851851851853,0)" xlink:href="#P"/><use transform="matrix(0.06172839506172839,0,0,0.06172839506172839,110.86419753086422,0)" xlink:href="#W"/><use transform="matrix(0.06172839506172839,0,0,0.06172839506172839,123.2098765432099,0)" xlink:href="#X"/><use transform="matrix(0.06172839506172839,0,0,0.06172839506172839,135.55555555555557,0)" xlink:href="#Y"/></g><path fill="#3a414a" d="M115-194c55 1 70 41 70 98S169 2 115 4C84 4 66-9 55-30l1 105H24l-1-265h31l2 30c10-21 28-34 59-34zm-8 174c40 0 45-34 45-75s-6-73-45-74c-42 0-51 32-51 76 0 43 10 73 51 73" id="Z"/><path fill="#3a414a" d="M100-194c62-1 85 37 85 99 1 63-27 99-86 99S16-35 15-95c0-66 28-99 85-99zM99-20c44 1 53-31 53-75 0-43-8-75-51-75s-53 32-53 75 10 74 51 75" id="aa"/><g id="d"><use transform="matrix(0.06172839506172839,0,0,0.06172839506172839,0,0)" xlink:href="#Z"/><use transform="matrix(0.06172839506172839,0,0,0.06172839506172839,12.345679012345679,0)" xlink:href="#Q"/><use transform="matrix(0.06172839506172839,0,0,0.06172839506172839,17.22222222222222,0)" xlink:href="#P"/><use transform="matrix(0.06172839506172839,0,0,0.06172839506172839,29.5679012345679,0)" xlink:href="#W"/><use transform="matrix(0.06172839506172839,0,0,0.06172839506172839,41.913580246913575,0)" xlink:href="#aa"/></g><path fill="#3a414a" d="M101-251c82-7 93 87 43 132L82-64C71-53 59-42 53-27h129V0H18c2-99 128-94 128-182 0-28-16-43-45-43s-46 15-49 41l-32-3c6-41 34-60 81-64" id="ab"/><g id="e"><use transform="matrix(0.06172839506172839,0,0,0.06172839506172839,0,0)" xlink:href="#O"/><use transform="matrix(0.06172839506172839,0,0,0.06172839506172839,12.345679012345679,0)" xlink:href="#P"/><use transform="matrix(0.06172839506172839,0,0,0.06172839506172839,24.691358024691358,0)" xlink:href="#Q"/><use transform="matrix(0.06172839506172839,0,0,0.06172839506172839,29.5679012345679,0)" xlink:href="#R"/><use transform="matrix(0.06172839506172839,0,0,0.06172839506172839,35.74074074074074,0)" xlink:href="#S"/><use transform="matrix(0.06172839506172839,0,0,0.06172839506172839,54.19753086419753,0)" xlink:href="#T"/><use transform="matrix(0.06172839506172839,0,0,0.06172839506172839,66.54320987654322,0)" xlink:href="#U"/><use transform="matrix(0.06172839506172839,0,0,0.06172839506172839,77.65432098765433,0)" xlink:href="#Q"/><use transform="matrix(0.06172839506172839,0,0,0.06172839506172839,82.53086419753087,0)" xlink:href="#V"/><use transform="matrix(0.06172839506172839,0,0,0.06172839506172839,93.64197530864199,0)" xlink:href="#Q"/><use transform="matrix(0.06172839506172839,0,0,0.06172839506172839,98.51851851851853,0)" xlink:href="#P"/><use transform="matrix(0.06172839506172839,0,0,0.06172839506172839,110.86419753086422,0)" xlink:href="#W"/><use transform="matrix(0.06172839506172839,0,0,0.06172839506172839,123.2098765432099,0)" xlink:href="#X"/><use transform="matrix(0.06172839506172839,0,0,0.06172839506172839,135.55555555555557,0)" xlink:href="#ab"/></g><path fill="#3a414a" d="M59-47c-2 24 18 29 38 22v24C64 9 27 4 27-40v-127H5v-23h24l9-43h21v43h35v23H59v120" id="ac"/><path fill="#3a414a" d="M114-163C36-179 61-72 57 0H25l-1-190h30c1 12-1 29 2 39 6-27 23-49 58-41v29" id="ad"/><path fill="#3a414a" d="M100-194c63 0 86 42 84 106H49c0 40 14 67 53 68 26 1 43-12 49-29l28 8c-11 28-37 45-77 45C44 4 14-33 15-96c1-61 26-98 85-98zm52 81c6-60-76-77-97-28-3 7-6 17-6 28h103" id="ae"/><g id="f"><use transform="matrix(0.06172839506172839,0,0,0.06172839506172839,0,0)" xlink:href="#ac"/><use transform="matrix(0.06172839506172839,0,0,0.06172839506172839,6.172839506172839,0)" xlink:href="#ad"/><use transform="matrix(0.06172839506172839,0,0,0.06172839506172839,13.518518518518519,0)" xlink:href="#T"/><use transform="matrix(0.06172839506172839,0,0,0.06172839506172839,25.864197530864196,0)" xlink:href="#S"/><use transform="matrix(0.06172839506172839,0,0,0.06172839506172839,44.32098765432099,0)" xlink:href="#Z"/><use transform="matrix(0.06172839506172839,0,0,0.06172839506172839,56.666666666666664,0)" xlink:href="#ae"/><use transform="matrix(0.06172839506172839,0,0,0.06172839506172839,69.01234567901234,0)" xlink:href="#ac"/></g><path fill="#3a414a" d="M126-127c33 6 58 20 58 59 0 88-139 92-164 29-3-8-5-16-6-25l32-3c6 27 21 44 54 44 32 0 52-15 52-46 0-38-36-46-79-43v-28c39 1 72-4 72-42 0-27-17-43-46-43-28 0-47 15-49 41l-32-3c6-42 35-63 81-64 48-1 79 21 79 65 0 36-21 52-52 59" id="af"/><g id="g"><use transform="matrix(0.06172839506172839,0,0,0.06172839506172839,0,0)" xlink:href="#O"/><use transform="matrix(0.06172839506172839,0,0,0.06172839506172839,12.345679012345679,0)" xlink:href="#P"/><use transform="matrix(0.06172839506172839,0,0,0.06172839506172839,24.691358024691358,0)" xlink:href="#Q"/><use transform="matrix(0.06172839506172839,0,0,0.06172839506172839,29.5679012345679,0)" xlink:href="#R"/><use transform="matrix(0.06172839506172839,0,0,0.06172839506172839,35.74074074074074,0)" xlink:href="#S"/><use transform="matrix(0.06172839506172839,0,0,0.06172839506172839,54.19753086419753,0)" xlink:href="#T"/><use transform="matrix(0.06172839506172839,0,0,0.06172839506172839,66.54320987654322,0)" xlink:href="#U"/><use transform="matrix(0.06172839506172839,0,0,0.06172839506172839,77.65432098765433,0)" xlink:href="#Q"/><use transform="matrix(0.06172839506172839,0,0,0.06172839506172839,82.53086419753087,0)" xlink:href="#V"/><use transform="matrix(0.06172839506172839,0,0,0.06172839506172839,93.64197530864199,0)" xlink:href="#Q"/><use transform="matrix(0.06172839506172839,0,0,0.06172839506172839,98.51851851851853,0)" xlink:href="#P"/><use transform="matrix(0.06172839506172839,0,0,0.06172839506172839,110.86419753086422,0)" xlink:href="#W"/><use transform="matrix(0.06172839506172839,0,0,0.06172839506172839,123.2098765432099,0)" xlink:href="#X"/><use transform="matrix(0.06172839506172839,0,0,0.06172839506172839,135.55555555555557,0)" xlink:href="#af"/></g><path fill="#3a414a" d="M101-234c-31-9-42 10-38 44h38v23H63V0H32v-167H5v-23h27c-7-52 17-82 69-68v24" id="ag"/><path fill="#3a414a" d="M24 0v-261h32V0H24" id="ah"/><g id="h"><use transform="matrix(0.06172839506172839,0,0,0.06172839506172839,0,0)" xlink:href="#ag"/><use transform="matrix(0.06172839506172839,0,0,0.06172839506172839,6.172839506172839,0)" xlink:href="#ah"/><use transform="matrix(0.06172839506172839,0,0,0.06172839506172839,11.049382716049383,0)" xlink:href="#T"/><use transform="matrix(0.06172839506172839,0,0,0.06172839506172839,23.395061728395063,0)" xlink:href="#ac"/><use transform="matrix(0.06172839506172839,0,0,0.06172839506172839,29.567901234567902,0)" xlink:href="#ae"/></g><g id="i"><use transform="matrix(0.06172839506172839,0,0,0.06172839506172839,0,0)" xlink:href="#O"/><use transform="matrix(0.06172839506172839,0,0,0.06172839506172839,12.345679012345679,0)" xlink:href="#P"/><use transform="matrix(0.06172839506172839,0,0,0.06172839506172839,24.691358024691358,0)" xlink:href="#Q"/><use transform="matrix(0.06172839506172839,0,0,0.06172839506172839,29.5679012345679,0)" xlink:href="#R"/><use transform="matrix(0.06172839506172839,0,0,0.06172839506172839,35.74074074074074,0)" xlink:href="#S"/><use transform="matrix(0.06172839506172839,0,0,0.06172839506172839,54.19753086419753,0)" xlink:href="#T"/><use transform="matrix(0.06172839506172839,0,0,0.06172839506172839,66.54320987654322,0)" xlink:href="#U"/><use transform="matrix(0.06172839506172839,0,0,0.06172839506172839,77.65432098765433,0)" xlink:href="#Q"/><use transform="matrix(0.06172839506172839,0,0,0.06172839506172839,82.53086419753087,0)" xlink:href="#V"/><use transform="matrix(0.06172839506172839,0,0,0.06172839506172839,93.64197530864199,0)" xlink:href="#Q"/><use transform="matrix(0.06172839506172839,0,0,0.06172839506172839,98.51851851851853,0)" xlink:href="#P"/><use transform="matrix(0.06172839506172839,0,0,0.06172839506172839,110.86419753086422,0)" xlink:href="#W"/><use transform="matrix(0.06172839506172839,0,0,0.06172839506172839,123.2098765432099,0)" xlink:href="#X"/><use transform="matrix(0.06172839506172839,0,0,0.06172839506172839,135.55555555555557,0)" xlink:href="#W"/></g><g id="j"><use transform="matrix(0.06172839506172839,0,0,0.06172839506172839,0,0)" xlink:href="#O"/><use transform="matrix(0.06172839506172839,0,0,0.06172839506172839,12.345679012345679,0)" xlink:href="#ad"/><use transform="matrix(0.06172839506172839,0,0,0.06172839506172839,19.691358024691358,0)" xlink:href="#T"/><use transform="matrix(0.06172839506172839,0,0,0.06172839506172839,32.03703703703704,0)" xlink:href="#S"/></g><path fill="#333" d="M85 4C-2 5 27-109 22-190h50c7 57-23 150 33 157 60-5 35-97 40-157h50l1 190h-47c-2-12 1-28-3-38-12 25-28 42-61 42" id="ai"/><path fill="#333" d="M88-194c31-1 46 15 58 34l-1-101h50l1 261h-48c-2-10 0-23-3-31C134-8 116 4 84 4 32 4 16-41 15-95c0-56 19-97 73-99zm17 164c33 0 40-30 41-66 1-37-9-64-41-64s-38 30-39 65c0 43 13 65 39 65" id="aj"/><path fill="#333" d="M135-194c53 0 70 44 70 98 0 56-19 98-73 100-31 1-45-17-59-34 3 33 2 69 2 105H25l-1-265h48c2 10 0 23 3 31 11-24 29-35 60-35zM114-30c33 0 39-31 40-66 0-38-9-64-40-64-56 0-55 130 0 130" id="ak"/><g id="k"><use transform="matrix(0.04938271604938272,0,0,0.04938271604938272,0,0)" xlink:href="#ai"/><use transform="matrix(0.04938271604938272,0,0,0.04938271604938272,10.814814814814815,0)" xlink:href="#aj"/><use transform="matrix(0.04938271604938272,0,0,0.04938271604938272,21.62962962962963,0)" xlink:href="#ak"/></g><g id="l"><use transform="matrix(0.06172839506172839,0,0,0.06172839506172839,0,0)" xlink:href="#O"/><use transform="matrix(0.06172839506172839,0,0,0.06172839506172839,12.345679012345679,0)" xlink:href="#P"/><use transform="matrix(0.06172839506172839,0,0,0.06172839506172839,24.691358024691358,0)" xlink:href="#Q"/><use transform="matrix(0.06172839506172839,0,0,0.06172839506172839,29.5679012345679,0)" xlink:href="#R"/><use transform="matrix(0.06172839506172839,0,0,0.06172839506172839,35.74074074074074,0)" xlink:href="#P"/><use transform="matrix(0.06172839506172839,0,0,0.06172839506172839,48.08641975308642,0)" xlink:href="#T"/><use transform="matrix(0.06172839506172839,0,0,0.06172839506172839,60.432098765432094,0)" xlink:href="#O"/><use transform="matrix(0.06172839506172839,0,0,0.06172839506172839,72.77777777777777,0)" xlink:href="#Q"/><use transform="matrix(0.06172839506172839,0,0,0.06172839506172839,77.65432098765432,0)" xlink:href="#ac"/><use transform="matrix(0.06172839506172839,0,0,0.06172839506172839,83.82716049382715,0)" xlink:href="#aa"/><use transform="matrix(0.06172839506172839,0,0,0.06172839506172839,96.17283950617283,0)" xlink:href="#ad"/></g><g id="m"><use transform="matrix(0.06172839506172839,0,0,0.06172839506172839,0,0)" xlink:href="#ac"/><use transform="matrix(0.06172839506172839,0,0,0.06172839506172839,6.172839506172839,0)" xlink:href="#V"/><use transform="matrix(0.06172839506172839,0,0,0.06172839506172839,17.28395061728395,0)" xlink:href="#Z"/></g><path fill="#3a414a" d="M33-154v-36h34v36H33zM33 0v-36h34V0H33" id="al"/><g id="n"><use transform="matrix(0.06172839506172839,0,0,0.06172839506172839,0,0)" xlink:href="#Z"/><use transform="matrix(0.06172839506172839,0,0,0.06172839506172839,12.345679012345679,0)" xlink:href="#aa"/><use transform="matrix(0.06172839506172839,0,0,0.06172839506172839,24.691358024691358,0)" xlink:href="#ad"/><use transform="matrix(0.06172839506172839,0,0,0.06172839506172839,32.03703703703704,0)" xlink:href="#ac"/><use transform="matrix(0.06172839506172839,0,0,0.06172839506172839,38.20987654320988,0)" xlink:href="#al"/></g><path fill="#3a414a" d="M101-251c68 0 85 55 85 127S166 4 100 4C33 4 14-52 14-124c0-73 17-127 87-127zm-1 229c47 0 54-49 54-102s-4-102-53-102c-51 0-55 48-55 102 0 53 5 102 54 102" id="am"/><path fill="#3a414a" d="M54-142c48-35 137-8 131 61C196 18 31 33 14-55l32-4c7 23 22 37 52 37 35-1 51-22 54-58 4-55-73-65-99-34H22l8-134h141v27H59" id="an"/><g id="o"><use transform="matrix(0.06172839506172839,0,0,0.06172839506172839,0,0)" xlink:href="#ab"/><use transform="matrix(0.06172839506172839,0,0,0.06172839506172839,12.345679012345679,0)" xlink:href="#ab"/><use transform="matrix(0.06172839506172839,0,0,0.06172839506172839,24.691358024691358,0)" xlink:href="#am"/><use transform="matrix(0.06172839506172839,0,0,0.06172839506172839,37.03703703703704,0)" xlink:href="#an"/></g><g id="p"><use transform="matrix(0.06172839506172839,0,0,0.06172839506172839,0,0)" xlink:href="#S"/><use transform="matrix(0.06172839506172839,0,0,0.06172839506172839,18.456790123456788,0)" xlink:href="#T"/><use transform="matrix(0.06172839506172839,0,0,0.06172839506172839,30.80246913580247,0)" xlink:href="#ah"/><use transform="matrix(0.06172839506172839,0,0,0.06172839506172839,35.67901234567901,0)" xlink:href="#ac"/><use transform="matrix(0.06172839506172839,0,0,0.06172839506172839,41.851851851851855,0)" xlink:href="#Q"/><use transform="matrix(0.06172839506172839,0,0,0.06172839506172839,46.7283950617284,0)" xlink:href="#V"/><use transform="matrix(0.06172839506172839,0,0,0.06172839506172839,57.839506172839506,0)" xlink:href="#P"/><use transform="matrix(0.06172839506172839,0,0,0.06172839506172839,70.18518518518519,0)" xlink:href="#U"/><use transform="matrix(0.06172839506172839,0,0,0.06172839506172839,81.2962962962963,0)" xlink:href="#ac"/></g><path fill="#3a414a" d="M155-56V0h-30v-56H8v-25l114-167h33v167h35v25h-35zm-30-156c-27 46-58 90-88 131h88v-131" id="ao"/><g id="q"><use transform="matrix(0.06172839506172839,0,0,0.06172839506172839,0,0)" xlink:href="#Y"/><use transform="matrix(0.06172839506172839,0,0,0.06172839506172839,12.345679012345679,0)" xlink:href="#ab"/><use transform="matrix(0.06172839506172839,0,0,0.06172839506172839,24.691358024691358,0)" xlink:href="#af"/><use transform="matrix(0.06172839506172839,0,0,0.06172839506172839,37.03703703703704,0)" xlink:href="#ao"/></g><path d="M1288 0h-193v-673H361V0H169v-1456h192v626h734v-626h193V0" id="ap"/><path d="M584 20C278 26 81-227 91-551c10-320 175-545 491-551 308-5 503 247 494 573-9 322-175 543-492 549zm-2-970c-208 0-305 185-305 421 0 216 106 398 307 398 211 0 307-186 307-420 0-214-109-399-309-399" id="aq"/><path d="M538-131c121 0 232-49 232-156 0-50-20-88-56-117-73-60-334-92-420-143-92-55-162-110-162-238 0-190 192-317 400-317 223 0 414 129 413 338H759c0-108-110-186-227-186-119 0-215 53-215 159 0 45 18 78 53 101 76 52 331 90 416 139 98 57 169 115 169 251C955-92 760 20 538 20c-176 0-314-68-386-174-38-55-57-115-57-179h185c6 129 116 202 258 202" id="ar"/><path d="M456 20C285 20 205-92 206-268v-671H9v-143h197v-262h185v262h202v143H391v671c-9 125 92 149 207 118V0c-49 13-96 20-142 20" id="as"/><g id="s"><use transform="matrix(0.0065107421875,0,0,0.0065107421875,0,0)" xlink:href="#ap"/><use transform="matrix(0.0065107421875,0,0,0.0065107421875,9.50568359375,0)" xlink:href="#aq"/><use transform="matrix(0.0065107421875,0,0,0.0065107421875,17.11023046875,0)" xlink:href="#ar"/><use transform="matrix(0.0065107421875,0,0,0.0065107421875,23.98557421875,0)" xlink:href="#as"/></g><filter id="r" filterUnits="objectBoundingBox" x="-.02" y="0" width="1.03" height="1.02"><feOffset result="offOut" in="SourceAlpha" dy="1"/><feGaussianBlur result="blurOut" in="offOut" stdDeviation=".75"/><feColorMatrix result="colorOut" in="blurOut" values="0 0 0 0 0 0 0 0 0 0 0 0 0 0 0 0 0 0 0.4 0"/><feBlend in="SourceGraphic" in2="colorOut"/></filter><path fill="#333" d="M115-3C79 11 28 4 28-45v-112H4v-33h27l15-45h31v45h36v33H77v99c-1 23 16 31 38 25v30" id="at"/><path fill="#333" d="M190-63c-7 42-38 67-86 67-59 0-84-38-90-98-12-110 154-137 174-36l-49 2c-2-19-15-32-35-32-30 0-35 28-38 64-6 74 65 87 74 30" id="au"/><g id="t"><use transform="matrix(0.04938271604938272,0,0,0.04938271604938272,0,0)" xlink:href="#at"/><use transform="matrix(0.04938271604938272,0,0,0.04938271604938272,5.8765432098765435,0)" xlink:href="#au"/><use transform="matrix(0.04938271604938272,0,0,0.04938271604938272,15.753086419753087,0)" xlink:href="#ak"/></g><path d="M85-194c31 0 48 13 60 33l-1-100h32l1 261h-30c-2-10 0-23-3-31C134-8 116 4 85 4 32 4 16-35 15-94c0-66 23-100 70-100zm9 24c-40 0-46 34-46 75 0 40 6 74 45 74 42 0 51-32 51-76 0-42-9-74-50-73" id="av"/><path d="M100-194c62-1 85 37 85 99 1 63-27 99-86 99S16-35 15-95c0-66 28-99 85-99zM99-20c44 1 53-31 53-75 0-43-8-75-51-75s-53 32-53 75 10 74 51 75" id="aw"/><path d="M96-169c-40 0-48 33-48 73s9 75 48 75c24 0 41-14 43-38l32 2c-6 37-31 61-74 61-59 0-76-41-82-99-10-93 101-131 147-64 4 7 5 14 7 22l-32 3c-4-21-16-35-41-35" id="ax"/><path d="M143 0L79-87 56-68V0H24v-261h32v163l83-92h37l-77 82L181 0h-38" id="ay"/><path d="M100-194c63 0 86 42 84 106H49c0 40 14 67 53 68 26 1 43-12 49-29l28 8c-11 28-37 45-77 45C44 4 14-33 15-96c1-61 26-98 85-98zm52 81c6-60-76-77-97-28-3 7-6 17-6 28h103" id="az"/><path d="M114-163C36-179 61-72 57 0H25l-1-190h30c1 12-1 29 2 39 6-27 23-49 58-41v29" id="aA"/><g id="u"><use transform="matrix(0.048148148148148155,0,0,0.048148148148148155,0,0)" xlink:href="#av"/><use transform="matrix(0.048148148148148155,0,0,0.048148148148148155,9.629629629629632,0)" xlink:href="#aw"/><use transform="matrix(0.048148148148148155,0,0,0.048148148148148155,19.259259259259263,0)" xlink:href="#ax"/><use transform="matrix(0.048148148148148155,0,0,0.048148148148148155,27.92592592592593,0)" xlink:href="#ay"/><use transform="matrix(0.048148148148148155,0,0,0.048148148148148155,36.592592592592595,0)" xlink:href="#az"/><use transform="matrix(0.048148148148148155,0,0,0.048148148148148155,46.22222222222223,0)" xlink:href="#aA"/></g><path d="M84 4C-5 8 30-112 23-190h32v120c0 31 7 50 39 49 72-2 45-101 50-169h31l1 190h-30c-1-10 1-25-2-33-11 22-28 36-60 37" id="aB"/><path d="M117-194c89-4 53 116 60 194h-32v-121c0-31-8-49-39-48C34-167 62-67 57 0H25l-1-190h30c1 10-1 24 2 32 11-22 29-35 61-36" id="aC"/><g id="v"><use transform="matrix(0.048148148148148155,0,0,0.048148148148148155,0,0)" xlink:href="#aA"/><use transform="matrix(0.048148148148148155,0,0,0.048148148148148155,5.72962962962963,0)" xlink:href="#aB"/><use transform="matrix(0.048148148148148155,0,0,0.048148148148148155,15.359259259259261,0)" xlink:href="#aC"/></g><path d="M16-82v-28h88v28H16" id="aD"/><g id="w"><use transform="matrix(0.048148148148148155,0,0,0.048148148148148155,0,0)" xlink:href="#aD"/><use transform="matrix(0.048148148148148155,0,0,0.048148148148148155,5.72962962962963,0)" xlink:href="#av"/></g><path d="M141-36C126-15 110 5 73 4 37 3 15-17 15-53c-1-64 63-63 125-63 3-35-9-54-41-54-24 1-41 7-42 31l-33-3c5-37 33-52 76-52 45 0 72 20 72 64v82c-1 20 7 32 28 27v20c-31 9-61-2-59-35zM48-53c0 20 12 33 32 33 41-3 63-29 60-74-43 2-92-5-92 41" id="aE"/><path d="M24-231v-30h32v30H24zM24 0v-190h32V0H24" id="aF"/><path d="M0 4l72-265h28L28 4H0" id="aG"/><path d="M210-169c-67 3-38 105-44 169h-31v-121c0-29-5-50-35-48C34-165 62-65 56 0H25l-1-190h30c1 10-1 24 2 32 10-44 99-50 107 0 11-21 27-35 58-36 85-2 47 119 55 194h-31v-121c0-29-5-49-35-48" id="aH"/><path d="M135-143c-3-34-86-38-87 0 15 53 115 12 119 90S17 21 10-45l28-5c4 36 97 45 98 0-10-56-113-15-118-90-4-57 82-63 122-42 12 7 21 19 24 35" id="aI"/><g id="x"><use transform="matrix(0.048148148148148155,0,0,0.048148148148148155,0,0)" xlink:href="#av"/><use transform="matrix(0.048148148148148155,0,0,0.048148148148148155,9.629629629629632,0)" xlink:href="#aE"/><use transform="matrix(0.048148148148148155,0,0,0.048148148148148155,19.259259259259263,0)" xlink:href="#aF"/><use transform="matrix(0.048148148148148155,0,0,0.048148148148148155,23.062962962962967,0)" xlink:href="#aG"/><use transform="matrix(0.048148148148148155,0,0,0.048148148148148155,27.877777777777784,0)" xlink:href="#aH"/><use transform="matrix(0.048148148148148155,0,0,0.048148148148148155,42.27407407407408,0)" xlink:href="#aB"/><use transform="matrix(0.048148148148148155,0,0,0.048148148148148155,51.90370370370371,0)" xlink:href="#aI"/><use transform="matrix(0.048148148148148155,0,0,0.048148148148148155,60.57037037037038,0)" xlink:href="#aF"/><use transform="matrix(0.048148148148148155,0,0,0.048148148148148155,64.37407407407409,0)" xlink:href="#ax"/><use transform="matrix(0.048148148148148155,0,0,0.048148148148148155,73.04074074074076,0)" xlink:href="#aF"/><use transform="matrix(0.048148148148148155,0,0,0.048148148148148155,76.84444444444446,0)" xlink:href="#aE"/><use transform="matrix(0.048148148148148155,0,0,0.048148148148148155,86.4740740740741,0)" xlink:href="#aC"/></g><path d="M18-100v-36l175-74v27L42-118l151 64v27" id="aJ"/><path d="M59-47c-2 24 18 29 38 22v24C64 9 27 4 27-40v-127H5v-23h24l9-43h21v43h35v23H59v120" id="aK"/><path d="M18-27v-27l151-64-151-65v-27l175 74v36" id="aL"/><g id="y"><use transform="matrix(0.048148148148148155,0,0,0.048148148148148155,0,0)" xlink:href="#aJ"/><use transform="matrix(0.048148148148148155,0,0,0.048148148148148155,10.111111111111112,0)" xlink:href="#aF"/><use transform="matrix(0.048148148148148155,0,0,0.048148148148148155,13.914814814814816,0)" xlink:href="#aC"/><use transform="matrix(0.048148148148148155,0,0,0.048148148148148155,23.544444444444448,0)" xlink:href="#aI"/><use transform="matrix(0.048148148148148155,0,0,0.048148148148148155,32.211111111111116,0)" xlink:href="#aK"/><use transform="matrix(0.048148148148148155,0,0,0.048148148148148155,37.02592592592593,0)" xlink:href="#aA"/><use transform="matrix(0.048148148148148155,0,0,0.048148148148148155,42.75555555555556,0)" xlink:href="#aB"/><use transform="matrix(0.048148148148148155,0,0,0.048148148148148155,52.38518518518519,0)" xlink:href="#aH"/><use transform="matrix(0.048148148148148155,0,0,0.048148148148148155,66.78148148148149,0)" xlink:href="#az"/><use transform="matrix(0.048148148148148155,0,0,0.048148148148148155,76.41111111111113,0)" xlink:href="#aC"/><use transform="matrix(0.048148148148148155,0,0,0.048148148148148155,86.04074074074076,0)" xlink:href="#aK"/><use transform="matrix(0.048148148148148155,0,0,0.048148148148148155,90.85555555555557,0)" xlink:href="#aL"/></g><g id="z"><use transform="matrix(0.048148148148148155,0,0,0.048148148148148155,0,0)" xlink:href="#av"/><use transform="matrix(0.048148148148148155,0,0,0.048148148148148155,9.629629629629632,0)" xlink:href="#aE"/><use transform="matrix(0.048148148148148155,0,0,0.048148148148148155,19.259259259259263,0)" xlink:href="#aF"/><use transform="matrix(0.048148148148148155,0,0,0.048148148148148155,23.062962962962967,0)" xlink:href="#aG"/><use transform="matrix(0.048148148148148155,0,0,0.048148148148148155,27.877777777777784,0)" xlink:href="#aE"/><use transform="matrix(0.048148148148148155,0,0,0.048148148148148155,37.50740740740741,0)" xlink:href="#aB"/><use transform="matrix(0.048148148148148155,0,0,0.048148148148148155,47.13703703703705,0)" xlink:href="#av"/><use transform="matrix(0.048148148148148155,0,0,0.048148148148148155,56.76666666666667,0)" xlink:href="#aF"/><use transform="matrix(0.048148148148148155,0,0,0.048148148148148155,60.57037037037038,0)" xlink:href="#aK"/><use transform="matrix(0.048148148148148155,0,0,0.048148148148148155,65.3851851851852,0)" xlink:href="#aw"/><use transform="matrix(0.048148148148148155,0,0,0.048148148148148155,75.01481481481483,0)" xlink:href="#aA"/></g><path d="M24 0v-261h32V0H24" id="aM"/><g id="A"><use transform="matrix(0.048148148148148155,0,0,0.048148148148148155,0,0)" xlink:href="#aH"/><use transform="matrix(0.048148148148148155,0,0,0.048148148148148155,14.396296296296299,0)" xlink:href="#aB"/><use transform="matrix(0.048148148148148155,0,0,0.048148148148148155,24.025925925925932,0)" xlink:href="#aM"/><use transform="matrix(0.048148148148148155,0,0,0.048148148148148155,27.829629629629633,0)" xlink:href="#aK"/><use transform="matrix(0.048148148148148155,0,0,0.048148148148148155,32.64444444444445,0)" xlink:href="#aF"/><use transform="matrix(0.048148148148148155,0,0,0.048148148148148155,36.44814814814816,0)" xlink:href="#ax"/><use transform="matrix(0.048148148148148155,0,0,0.048148148148148155,45.11481481481482,0)" xlink:href="#aE"/><use transform="matrix(0.048148148148148155,0,0,0.048148148148148155,54.744444444444454,0)" xlink:href="#aI"/><use transform="matrix(0.048148148148148155,0,0,0.048148148148148155,63.41111111111112,0)" xlink:href="#aK"/></g><path d="M177-190C167-65 218 103 67 71c-23-6-38-20-44-43l32-5c15 47 100 32 89-28v-30C133-14 115 1 83 1 29 1 15-40 15-95c0-56 16-97 71-98 29-1 48 16 59 35 1-10 0-23 2-32h30zM94-22c36 0 50-32 50-73 0-42-14-75-50-75-39 0-46 34-46 75s6 73 46 73" id="aN"/><path d="M115-194c55 1 70 41 70 98S169 2 115 4C84 4 66-9 55-30l1 105H24l-1-265h31l2 30c10-21 28-34 59-34zm-8 174c40 0 45-34 45-75s-6-73-45-74c-42 0-51 32-51 76 0 43 10 73 51 73" id="aO"/><path d="M33-154v-36h34v36H33zM33 0v-36h34V0H33" id="aP"/><g id="B"><use transform="matrix(0.048148148148148155,0,0,0.048148148148148155,0,0)" xlink:href="#aN"/><use transform="matrix(0.048148148148148155,0,0,0.048148148148148155,9.629629629629632,0)" xlink:href="#aA"/><use transform="matrix(0.048148148148148155,0,0,0.048148148148148155,15.359259259259261,0)" xlink:href="#aw"/><use transform="matrix(0.048148148148148155,0,0,0.048148148148148155,24.988888888888894,0)" xlink:href="#aB"/><use transform="matrix(0.048148148148148155,0,0,0.048148148148148155,34.61851851851853,0)" xlink:href="#aO"/><use transform="matrix(0.048148148148148155,0,0,0.048148148148148155,44.24814814814816,0)" xlink:href="#aP"/></g><path d="M101-251c82-7 93 87 43 132L82-64C71-53 59-42 53-27h129V0H18c2-99 128-94 128-182 0-28-16-43-45-43s-46 15-49 41l-32-3c6-41 34-60 81-64" id="aQ"/><path d="M126-127c33 6 58 20 58 59 0 88-139 92-164 29-3-8-5-16-6-25l32-3c6 27 21 44 54 44 32 0 52-15 52-46 0-38-36-46-79-43v-28c39 1 72-4 72-42 0-27-17-43-46-43-28 0-47 15-49 41l-32-3c6-42 35-63 81-64 48-1 79 21 79 65 0 36-21 52-52 59" id="aR"/><path d="M99-251c64 0 84 50 84 122C183-37 130 33 47-8c-14-7-20-23-25-40l30-5c6 39 69 39 84 7 9-19 16-44 16-74-10 22-31 35-62 35-49 0-73-33-73-83 0-54 28-83 82-83zm-1 141c31-1 51-18 51-49 0-36-14-67-51-67-34 0-49 23-49 58 0 34 15 58 49 58" id="aS"/><path d="M33 0v-38h34V0H33" id="aT"/><path d="M155-56V0h-30v-56H8v-25l114-167h33v167h35v25h-35zm-30-156c-27 46-58 90-88 131h88v-131" id="aU"/><path d="M27 0v-27h64v-190l-56 39v-29l58-41h29v221h61V0H27" id="aV"/><path d="M64 0c3-98 48-159 88-221H18v-27h164v26C143-157 98-101 97 0H64" id="aW"/><g id="C"><use transform="matrix(0.048148148148148155,0,0,0.048148148148148155,0,0)" xlink:href="#aQ"/><use transform="matrix(0.048148148148148155,0,0,0.048148148148148155,9.629629629629632,0)" xlink:href="#aR"/><use transform="matrix(0.048148148148148155,0,0,0.048148148148148155,19.259259259259263,0)" xlink:href="#aS"/><use transform="matrix(0.048148148148148155,0,0,0.048148148148148155,28.888888888888893,0)" xlink:href="#aT"/><use transform="matrix(0.048148148148148155,0,0,0.048148148148148155,33.70370370370371,0)" xlink:href="#aU"/><use transform="matrix(0.048148148148148155,0,0,0.048148148148148155,43.33333333333334,0)" xlink:href="#aQ"/><use transform="matrix(0.048148148148148155,0,0,0.048148148148148155,52.96296296296297,0)" xlink:href="#aT"/><use transform="matrix(0.048148148148148155,0,0,0.048148148148148155,57.7777777777778,0)" xlink:href="#aV"/><use transform="matrix(0.048148148148148155,0,0,0.048148148148148155,67.40740740740742,0)" xlink:href="#aR"/><use transform="matrix(0.048148148148148155,0,0,0.048148148148148155,77.03703703703705,0)" xlink:href="#aT"/><use transform="matrix(0.048148148148148155,0,0,0.048148148148148155,81.85185185185186,0)" xlink:href="#aR"/><use transform="matrix(0.048148148148148155,0,0,0.048148148148148155,91.4814814814815,0)" xlink:href="#aW"/></g></defs></g></svg>